<?xml version="1.0" standalone="no"?>
<!DOCTYPE svg PUBLIC "-//W3C//DTD SVG 20010904//EN"
 "http://www.w3.org/TR/2001/REC-SVG-20010904/DTD/svg10.dtd">
<svg version="1.0" xmlns="http://www.w3.org/2000/svg"
 width="700.000000pt" height="700.000000pt" viewBox="0 0 700.000000 700.000000"
 preserveAspectRatio="xMidYMid meet">
<metadata>
Created by potrace 1.11, written by Peter Selinger 2001-2013
</metadata>
<g transform="translate(0.000000,700.000000) scale(0.100000,-0.100000)"
fill="#000000" stroke="none">
<path d="M0 3500 l0 -3500 3500 0 3500 0 0 3500 0 3500 -3500 0 -3500 0 0
-3500z m3877 1698 l363 -363 118 118 c64 64 122 117 128 117 5 0 362 -353 793
-785 l784 -784 -161 -168 c-88 -92 -442 -449 -786 -792 l-625 -624 -89 81
c-49 45 -95 89 -102 97 -7 9 -26 25 -42 37 l-29 20 -359 -356 c-197 -196 -363
-356 -370 -356 -6 0 -173 160 -370 356 l-359 357 -45 -39 c-24 -22 -81 -72
-125 -111 -45 -40 -86 -73 -93 -73 -12 0 -1461 1444 -1531 1525 l-38 45 787
790 788 791 123 -123 123 -122 363 362 c200 199 370 362 378 362 7 0 176 -163
376 -362z"/>
<path d="M3178 5053 c-170 -170 -308 -313 -308 -318 0 -6 85 -96 190 -200
l190 -190 118 118 c64 64 124 117 132 117 8 0 68 -53 132 -117 l118 -118 196
196 195 196 -316 309 c-174 170 -322 310 -328 312 -7 1 -150 -136 -319 -305z"/>
<path d="M1960 4323 c-305 -307 -613 -617 -684 -690 l-130 -132 165 -168 c544
-556 1198 -1213 1205 -1213 5 0 40 31 77 68 l68 69 -370 368 c-204 203 -371
373 -371 378 0 5 109 119 242 254 l242 244 -244 244 -245 245 373 373 373 373
-66 72 c-37 40 -70 72 -73 72 -4 0 -257 -251 -562 -557z"/>
<path d="M4413 4811 c-35 -38 -63 -73 -63 -78 0 -4 131 -139 291 -298 160
-160 322 -325 361 -368 l70 -77 -43 -48 c-23 -26 -127 -133 -231 -239 -103
-105 -188 -197 -188 -204 0 -6 83 -96 184 -198 101 -102 205 -210 231 -240
l47 -54 -43 -46 c-24 -25 -189 -192 -366 -371 l-323 -325 72 -78 73 -78 300
303 c165 167 475 480 690 696 l390 392 -690 690 c-379 380 -692 690 -695 690
-3 0 -33 -31 -67 -69z"/>
<path d="M2435 4310 l-320 -320 180 -181 c99 -99 188 -185 197 -190 15 -8 71
43 338 308 l321 317 -193 193 c-106 106 -195 193 -198 193 -3 0 -149 -144
-325 -320z"/>
<path d="M4047 4442 c-103 -103 -187 -192 -187 -197 0 -6 141 -151 314 -324
l314 -314 196 188 c108 104 196 191 196 194 0 6 -633 641 -640 641 -3 0 -90
-84 -193 -188z"/>
<path d="M3425 4310 l-70 -70 73 -73 72 -72 72 72 73 73 -70 70 c-38 38 -72
70 -75 70 -3 0 -37 -32 -75 -70z"/>
<path d="M2930 3815 l-315 -315 284 -283 c156 -155 302 -297 323 -316 l39 -35
67 67 67 67 -244 244 -244 245 41 48 c22 26 133 140 246 253 l206 205 -67 67
c-37 38 -72 68 -78 68 -5 0 -152 -142 -325 -315z"/>
<path d="M3672 4067 c-34 -34 -62 -67 -62 -72 0 -5 108 -118 241 -251 133
-134 239 -247 238 -253 -2 -5 -111 -118 -243 -251 l-239 -242 65 -65 c59 -59
67 -64 86 -52 11 7 157 149 324 316 l303 303 -315 315 c-173 173 -320 315
-325 315 -6 0 -39 -28 -73 -63z"/>
<path d="M4176 3080 c-174 -172 -316 -318 -316 -324 0 -6 85 -97 190 -201
l190 -189 262 260 c145 144 289 285 321 314 31 29 57 58 57 64 0 6 -10 20 -22
30 -13 10 -100 95 -194 188 l-172 170 -316 -312z"/>
<path d="M2296 3188 l-186 -183 326 -319 326 -319 194 194 195 195 -310 307
c-238 236 -315 307 -334 307 -19 0 -71 -46 -211 -182z"/>
<path d="M3436 2830 c-36 -34 -66 -68 -66 -74 0 -6 29 -41 65 -76 l65 -64 65
64 c36 35 65 69 65 75 0 6 -29 39 -64 74 l-63 63 -67 -62z"/>
<path d="M3055 2450 l-190 -190 318 -317 317 -318 317 317 318 318 -190 190
c-104 104 -194 190 -200 190 -6 0 -60 -49 -120 -110 -60 -60 -116 -110 -124
-110 -8 0 -64 50 -126 110 -61 61 -115 110 -121 110 -5 0 -94 -86 -199 -190z"/>
</g>
</svg>
